<svg width="20" height="20" viewBox="0 0 20 20" fill="none" xmlns="http://www.w3.org/2000/svg">
<path d="M16.667 20.0002H12.5L7.58789 15.3615C6.01969 13.8805 5.49261 11.6029 6.25 9.58323L16.667 20.0002ZM9.01953 0.0480709C10.6561 -0.113119 12.3078 0.132611 13.8271 0.761938C15.3463 1.39127 16.6873 2.38536 17.7305 3.65647C18.7735 4.92754 19.4868 6.43638 19.8076 8.04905C20.1284 9.66196 20.0467 11.3298 19.5693 12.9035C19.0919 14.4771 18.234 15.9088 17.0713 17.0715L14.7168 14.717C15.4923 13.9415 16.0644 12.9863 16.3828 11.9367C16.7012 10.8872 16.7559 9.77513 16.542 8.69944C16.328 7.62364 15.8521 6.61668 15.1562 5.76877C14.4604 4.92092 13.566 4.25788 12.5527 3.83811C11.5395 3.4184 10.4382 3.2551 9.34668 3.36252C8.25506 3.47004 7.20598 3.84492 6.29395 4.45432C5.38206 5.06368 4.63421 5.88846 4.11719 6.85569C3.60013 7.82304 3.33302 8.90335 3.33301 10.0002V17.9172H0V10.0002C1.26834e-05 8.35576 0.405484 6.73664 1.18066 5.28635C1.95587 3.83604 3.077 2.5994 4.44434 1.68577C5.81162 0.772174 7.38303 0.209295 9.01953 0.0480709ZM10 5.87522C10.5416 5.87522 11.0778 5.98245 11.5781 6.18967C12.0785 6.39695 12.534 6.70023 12.917 7.08323C13.3 7.46625 13.6033 7.92165 13.8105 8.42209C14.0178 8.92247 14.125 9.45862 14.125 10.0002C14.125 10.5419 14.0178 11.0789 13.8105 11.5793C13.468 12.4053 12.4039 12.404 11.7715 11.7717L8.22852 8.22873C7.59617 7.59613 7.59548 6.53198 8.42188 6.18967C8.92225 5.98245 9.45841 5.87522 10 5.87522Z" fill="#D9D9D9"/>
</svg>
